<?xml version="1.0" standalone="no"?>
<!DOCTYPE svg PUBLIC "-//W3C//DTD SVG 20010904//EN"
 "http://www.w3.org/TR/2001/REC-SVG-20010904/DTD/svg10.dtd">
<svg version="1.0" xmlns="http://www.w3.org/2000/svg"
 width="512.000000pt" height="512.000000pt" viewBox="0 0 512.000000 512.000000"
 preserveAspectRatio="xMidYMid meet">

<g transform="translate(0.000000,512.000000) scale(0.100000,-0.100000)"
fill="#000000" stroke="none">
<path d="M1662 4785 c-82 -18 -212 -82 -283 -138 -102 -82 -182 -199 -226
-332 -23 -69 -27 -97 -27 -205 -1 -180 40 -307 139 -437 81 -105 166 -166 345
-246 33 -15 11 -16 -315 -17 -275 0 -364 -4 -414 -15 -204 -48 -388 -232 -436
-436 -22 -96 -22 -1982 0 -2078 48 -204 232 -388 436 -436 97 -22 3261 -22
3358 0 204 48 388 232 436 436 22 96 22 1982 0 2078 -45 191 -214 369 -410
432 -28 9 -152 14 -420 18 l-380 6 72 28 c391 153 564 597 378 972 -86 174
-251 308 -445 361 -88 24 -262 24 -350 0 -149 -41 -288 -133 -375 -248 -68
-90 -107 -177 -146 -327 -19 -72 -36 -131 -39 -131 -3 0 -23 60 -44 133 -52
182 -99 276 -183 367 -85 92 -185 158 -294 195 -103 34 -274 44 -377 20z m249
-430 c55 -20 104 -57 134 -103 22 -35 190 -580 181 -590 -8 -8 -531 189 -566
213 -132 93 -147 299 -30 416 73 73 183 98 281 64z m1484 -2 c65 -22 136 -93
158 -158 44 -128 -8 -266 -123 -325 -52 -26 -530 -203 -535 -198 -10 9 157
544 180 580 66 101 199 143 320 101z m787 -1391 c20 -13 47 -40 60 -60 21 -34
23 -51 26 -189 l4 -153 -1711 0 -1711 0 0 133 c0 72 5 149 11 170 12 46 68
103 112 116 19 6 643 9 1602 8 l1570 -2 37 -23z m86 -1409 l-3 -578 -23 -37
c-13 -20 -40 -47 -60 -60 l-37 -23 -1585 0 -1585 0 -37 23 c-20 13 -47 40 -60
60 l-23 37 -3 578 -3 577 1711 0 1711 0 -3 -577z"/>
</g>
</svg>
