<svg width="1034" height="1709" viewBox="0 0 1034 1709" fill="none" xmlns="http://www.w3.org/2000/svg">
<path d="M456.4 456.8C511.8 456.8 556.8 411.9 556.8 356.4V100.4C556.7 44.9 511.8 0 456.4 0C401 0 356 44.9 356 100.4V356.5C356 411.9 401 456.8 456.4 456.8Z" fill="#3F2C34"/>
<path d="M639.9 1644.4C639.9 1644.4 609.3 1653.1 608.1 1655.9C606.9 1658.6 605.1 1683.3 609.3 1692.3C616.5 1707.8 703.8 1713.4 721.9 1705.2C740 1697.1 639.9 1644.4 639.9 1644.4Z" fill="#F4BCD4"/>
<path d="M303.9 1634.4C303.9 1634.4 335.3 1639.6 336.8 1642.1C338.3 1644.7 343 1668.9 339.8 1678.4C334.4 1694.6 248.4 1710.2 229.4 1704.2C210.4 1698.2 303.9 1634.4 303.9 1634.4Z" fill="#F4BCD4"/>
<path d="M294.5 747.9C284.2 786.4 203.6 1316.2 207.8 1509.7C211.7 1687.7 443.2 1712.5 474.1 1492.7C505 1272.9 554.5 827.9 556.2 760.3C559.3 634.9 337.8 585.4 294.5 747.9Z" fill="#B6B8BF"/>
<path d="M410.9 783.5C409.5 823.3 449.2 1357.7 496.6 1545.4C540.2 1718 771.3 1690.5 752.4 1469.3C733.5 1248.1 682.2 803.4 668.7 737.1C643.8 614.1 416.9 615.3 410.9 783.5Z" fill="#B6B8BF"/>
<path d="M689.3 873.3C738.8 800.6 647.3 362.4 570.8 283.4C494.3 204.4 384.3 262.8 358 295.6C320.8 339 302.3 549.8 274.4 599.3C246.5 648.8 159.8 808.3 224.9 893.5C290 978.7 618.7 976.9 689.3 873.3Z" fill="#F4BCD4"/>
<path d="M247.4 756.3C230.5 934.6 -5.49997 944.9 0.100033 749.4C9.70003 417.3 329.9 387.2 358 295.6C449.6 388.7 425.3 451.9 425.3 451.9C425.3 451.9 270.3 514.1 247.4 756.3Z" fill="#F4BCD4"/>
<path d="M299.1 577.9C273.4 617.5 265.3 665.8 257.5 711.7C252.5 739.9 253.4 769 244.5 796.4C224.1 873 131.4 925.1 60.9004 878C125.2 912.5 206.3 872.3 230.3 806.4C243.4 776 242.8 742.3 249.1 710.3C258.6 664.4 269.1 615.3 299.1 577.9Z" fill="#AF6E8D"/>
<path d="M569 285.6C569 285.6 686.4 404.1 768.3 451.6C850.2 499.1 1051.6 570.9 999.2 712.8C946.8 854.7 680.4 747.6 619.2 551.5C558 355.4 569 285.6 569 285.6Z" fill="#F4BCD4"/>
<path d="M123.8 836.8C184.3 840.8 161.2 946.7 115 949.4C66.6999 952.2 51.8999 832.1 123.8 836.8Z" fill="#F9D6B9"/>
<path d="M945.5 684.5C900.1 724.6 983.1 794.3 1021.2 768.3C1061.2 741 999.5 636.8 945.5 684.5Z" fill="#F9D6B9"/>
<path d="M610.7 396.4C631.2 423.1 684.7 540.1 679.1 606.3C648.9 497.5 610.7 396.4 610.7 396.4Z" fill="#AF6E8D"/>
<path d="M474.1 1492.7C482.5 1375.9 535 1009.5 535 1009.5C535 1009.5 496.2 1390.5 474.1 1492.7Z" fill="#8E919B"/>
<path d="M464.954 340.745C516.486 336.008 556.761 315.85 554.91 295.722C553.06 275.593 509.785 263.115 458.254 267.852C406.722 272.589 366.447 292.747 368.297 312.875C370.148 333.004 413.422 345.482 464.954 340.745Z" fill="#AF6E8D"/>
<path d="M468.3 287.7C434.3 287.7 404.5 305.6 387.6 332.4C405.4 340.1 433.6 343.6 464.9 340.7C495.7 337.9 522.5 329.5 538.7 318.9C521.3 299.8 496.3 287.7 468.3 287.7Z" fill="#EABB9B"/>
<path d="M460.1 316.5C474.7 315.8 486 303.4 485.3 288.8L482.4 227.2C481.7 212.6 469.3 201.3 454.7 202C440.1 202.7 428.8 215.1 429.5 229.7L432.4 291.3C433.2 305.9 445.5 317.2 460.1 316.5Z" fill="#EFC5A5"/>
<path d="M378.6 143C378.6 213.5 411.7 256 457.9 256C504.2 256 527.8 207.3 527.8 137C527.8 72.8999 487.5 42.8999 448.7 44.4999C410 45.9999 378.6 78.8999 378.6 143Z" fill="#F9D6B9"/>
<path d="M457.8 137.7C457.3 144.9 468 175.4 454.6 181.2C447.2 182.7 438.5 180 438.5 180C441.3 185.9 454.1 188.1 462.6 185.1C471.1 182.1 462.5 147.6 457.8 137.7Z" fill="#D89068"/>
<path d="M454.4 19C454.4 19 456.1 54.7 450.4 69.3C444.7 84 371.3 106 371.3 102.9C371.3 99.8 396 26.3 454.4 19Z" fill="#3F2C34"/>
<path d="M457.6 19C457.6 19 455.9 54.7 461.6 69.3C467.3 84 540.7 106 540.7 102.9C540.7 99.8 516 26.3 457.6 19Z" fill="#3F2C34"/>
<path d="M527.8 638C566.57 638 598 590.363 598 531.6C598 472.837 566.57 425.2 527.8 425.2C489.029 425.2 457.6 472.837 457.6 531.6C457.6 590.363 489.029 638 527.8 638Z" fill="#B6B8BF"/>
</svg>
