<svg width="731" height="1662" viewBox="0 0 731 1662" fill="none" xmlns="http://www.w3.org/2000/svg">
<path d="M608.799 1590.3C608.799 1590.3 577.399 1595.5 575.899 1598C574.399 1600.6 569.699 1624.8 572.899 1634.3C578.299 1650.5 664.299 1666.1 683.299 1660.1C702.299 1654.1 608.799 1590.3 608.799 1590.3Z" fill="#B3B3B3"/>
<path d="M228.7 1575.2C228.7 1575.2 260.1 1580.4 261.6 1582.9C263.1 1585.4 267.8 1609.7 264.6 1619.2C259.2 1635.4 173.2 1651 154.2 1645C135.2 1639 228.7 1575.2 228.7 1575.2Z" fill="#B3B3B3"/>
<path d="M656.4 1492.2C645.3 1267.8 570.6 863.4 560.5 816.2L238 714.8C227.9 764.6 97.8998 1258.7 172.2 1514.4C199.2 1619.9 333.4 1638.4 353.6 1419.9C362.8 1320.9 373.6 1173.8 382.7 1042.5C406.6 1272.5 467.7 1451.1 514.8 1546.8C557.8 1633.7 669.8 1637 656.4 1492.2Z" fill="#598FFC"/>
<path d="M374.1 925.3C374.1 925.3 392.8 1079.1 404.3 1192.4C387.6 1094.8 370.7 1009.9 374.1 925.3Z" fill="#1A50BC"/>
<path d="M0.899706 684C-8.90029 726.3 63.3997 750.8 74.5997 702.3C86.5997 650.4 10.9997 640.4 0.899706 684Z" fill="#DDA68E"/>
<path d="M523.599 294.7C541.099 260.9 396.799 225.5 374.799 266.9C352.799 308.3 506.099 328.4 523.599 294.7Z" fill="#C18AA1"/>
<path d="M601.2 337.8C569.8 291.7 522.4 256.6 452.6 242.4C422.9 236.4 389.8 237.5 350.5 266C291.1 328 52.0001 488.7 18.1001 601.6C0.100143 661.8 73.6001 759 154.5 743.4C154.4 753.5 154.7 763 155.4 771.8C155.4 812.3 233 879 384.1 901.8C452.6 912.1 502.4 909.4 539.3 892.7C579 950.7 703.4 946.1 721.6 841.9C738.4 746 749.3 538.8 601.2 337.8Z" fill="#F4BCD4"/>
<path d="M496.4 328.1C467.9 370.2 483.8 401.4 495.5 444.2C501.7 471 504.9 498.4 506.6 525.9C509.2 566.9 508.6 607.9 508 648.9C508.6 729.9 499.6 818.6 541.8 891.3C555.6 912.6 580 924.9 604.5 929.1C475.3 920.9 497.5 699.5 496.7 607.9C497.4 553.8 497.7 499.2 487.9 445.9C477.4 403 464.5 365.8 496.4 328.1Z" fill="#C18AA1"/>
<path d="M582.099 958.9C607.999 993.7 673.499 954.6 643.799 914.6C612.099 871.8 555.399 922.9 582.099 958.9Z" fill="#DDA68E"/>
<path d="M405.399 302C407.399 282.3 427.799 266.9 452.699 266.9C478.899 266.9 500.199 284 500.199 305.2C500.199 306.4 500.099 307.5 499.999 308.6C474.099 314.7 433.699 311.5 405.399 302Z" fill="#CE9678"/>
<path d="M443.999 306.9H455.199C468.499 306.9 479.299 296.1 479.299 282.8V189.9C479.299 176.6 468.499 165.8 455.199 165.8H443.999C430.699 165.8 419.899 176.6 419.899 189.9V282.8C419.899 296.1 430.699 306.9 443.999 306.9Z" fill="#CE9678"/>
<path d="M435.799 28.3C435.799 28.3 328.5 203.7 431.5 236.3C509.6 258.6 554.099 99.3 554.099 99.3L435.799 28.3Z" fill="#DDA68E"/>
<path d="M344.699 270.5C344.699 270.5 208.199 376.4 158.799 646.7C148.999 519.4 237.399 350.4 344.699 270.5Z" fill="#C18AA1"/>
<path d="M519.6 180.4C519.6 180.4 536.6 120 519.6 92C561.3 75.9 570.6 83.5 570.3 85.7C569.9 87.9 554.1 143.7 519.6 180.4Z" fill="#6B4343"/>
<path d="M405.399 95.5999C405.399 95.5999 412.599 34.8999 428.299 22.8999C447.199 26.3999 438.099 34.0999 438.099 34.0999L405.399 95.5999Z" fill="#6B4343"/>
<path d="M382.3 23.5999C421.4 5.69993 484.4 -19.0001 550.1 23.5999C615.8 66.1999 556.4 118.7 556.4 118.7C556.4 118.7 452.4 59.9999 461.3 59.2999C470.3 58.5999 484.4 59.2999 484.4 59.2999C484.4 59.2999 420.8 15.1999 382.3 23.5999Z" fill="#6B4343"/>
<path d="M439.4 118.9C438.3 133.7 417.5 146 429.4 153.5C436.6 158.8 447.7 155 447.7 155C440.5 165.6 424.1 160 420.4 155.2C415.5 148.6 436.5 132.5 439.4 118.9Z" fill="#BD7346"/>
</svg>
