<svg width="821" height="1750" viewBox="0 0 821 1750" fill="none" xmlns="http://www.w3.org/2000/svg">
<path d="M531.3 1684.6C531.3 1684.6 500.7 1693.3 499.5 1696.1C498.3 1698.8 496.5 1723.5 500.7 1732.5C507.9 1748 595.2 1753.6 613.3 1745.4C631.4 1737.2 531.3 1684.6 531.3 1684.6Z" fill="#F4BCD4"/>
<path d="M161.1 1655.1C161.1 1655.1 192.5 1660.3 194 1662.8C195.5 1665.4 200.2 1689.6 197 1699.1C191.6 1715.3 105.6 1730.9 86.6003 1724.9C67.7003 1718.9 161.1 1655.1 161.1 1655.1Z" fill="#F4BCD4"/>
<path d="M167.3 1680.2C157.1 1678.2 150.3 1668.3 152.3 1658.1L165.2 1590.4C167.2 1580.2 177.1 1573.4 187.3 1575.4C197.5 1577.4 204.3 1587.3 202.3 1597.5L189.4 1665.2C187.4 1675.4 177.5 1682.2 167.3 1680.2Z" fill="#874D3D"/>
<path d="M519.8 1711.7C509.4 1712.7 500.2 1705 499.3 1694.6L493 1626C492 1615.6 499.7 1606.4 510.1 1605.5C520.5 1604.5 529.7 1612.2 530.6 1622.6L536.9 1691.2C537.9 1701.5 530.2 1710.7 519.8 1711.7Z" fill="#874D3D"/>
<path d="M417.3 253.1C425.9 250.7 435.7 253.7 443.3 250.7C451.6 247.4 456.7 238.3 463.7 234.3C471.5 229.8 481.9 229.9 488.2 224.8C495.1 219.1 496.8 208.8 501.9 202.5C507.4 195.6 516.9 191.4 520.4 183.9C524 176 520.9 166.1 522.4 157.8C523.9 149.4 530.3 141.2 529.8 132.7C529.3 124.3 521.8 116.9 519.4 108.6C517 100.6 519.3 90.4001 515.2 82.7001C511.3 75.3001 501.6 71.4001 496.2 64.6001C491 58.1001 489.5 47.7001 483 41.9001C476.8 36.3001 466.3 35.9001 459 31.3001C452 26.8001 447.2 17.5001 439.3 14.0001C431.7 10.6001 421.6 13.4001 413.2 11.1001C405.2 8.90007 398 1.30007 389.3 0.200068C381.1 -0.899932 372.2 4.50007 363.4 4.50007C355.6 4.50007 347.2 0.700068 340.8 4.00007C334.5 7.30007 332.6 16.6001 327.6 22.6001C323.2 27.9001 314.3 31.1001 311 38.1001C308 44.5001 311.1 53.5001 309.1 60.9001C307.2 67.8001 299.9 73.8001 298.9 81.3001C297.9 88.4001 303.3 96.3001 303.1 103.8C302.9 111.1 297 118.6 297.6 126C298.1 133.3 304.9 139.9 306.2 147.2C307.5 154.5 303.2 163 305.2 170C307.2 177.2 315.3 182.1 318.2 188.8C321.1 195.7 319.1 205 322.9 211.2C326.8 217.6 336 219.9 340.8 225.3C345.8 230.8 347.3 240.2 353.3 244.4C359.3 248.6 368.5 246.7 375.6 249.2C382.3 251.6 388.2 259 395.8 259.7C402.6 260.2 409.6 254.1 417.3 253.1Z" fill="#3F2C34"/>
<path d="M240.4 277.5C231.4 275 224.7 266.4 216.8 263.3C208.1 259.8 197.5 261.3 190.1 257.1C181.9 252.4 178 242.5 171.5 237.1C164.3 231.1 153.8 229 148.5 222.3C142.7 215.1 143.2 204.3 139.5 196.5C135.7 188.2 127.4 181.5 125.8 172.9C124.2 164.1 129.7 154.8 130.3 145.9C130.9 137.1 126.6 127.2 129.2 118.6C131.7 110.2 140.6 104.2 144.9 96.2001C149 88.5001 148.9 77.7001 154.6 70.6001C160 63.8001 170.5 61.4001 177.3 55.3001C183.8 49.5001 187.3 39.3001 195 34.4001C202.4 29.7001 213 30.8001 221.4 27.1001C229.4 23.6001 235.8 15.0001 244.6 12.5001C253 10.2001 262.9 14.3001 272 13.1001C280.6 12.0001 289.1 5.40015 298.3 5.40015C306.4 5.40015 312.4 13.0001 319.1 16.4001C325.7 19.8001 335.3 20.2001 340.4 26.5001C345 32.1001 344 41.9001 347.5 49.2001C350.6 55.8001 358.8 61.1001 360.9 68.8001C362.9 76.0001 358.5 84.7001 359.6 92.6001C360.6 100.1 367.2 107.2 367.5 115.1C367.7 122.7 361.6 130.3 361 138C360.5 145.6 365.5 154 364.2 161.6C362.9 169.2 355.3 175.4 353.3 182.7C351.2 190.2 354.3 199.5 351.3 206.4C348.2 213.6 339.4 217.7 335.5 224.2C331.4 230.9 331.6 240.7 326.6 246.3C321.4 252.1 311.7 252.7 305.4 257.1C299.1 261.5 295.1 270.3 287.7 273C280.7 275.5 271.9 271.4 264 272.1C256.5 272.8 248.5 278.5 240.4 277.5Z" fill="#3F2C34"/>
<path d="M168.9 809.9C142 904.2 90.4003 1347.9 84.1003 1549.4C80.4003 1667.5 263.1 1705 285.8 1547.3C317.4 1327.9 382.4 868.1 383.9 800.5C386.8 675.1 208.7 647.3 168.9 809.9Z" fill="#B6B8BF"/>
<path d="M285.901 825.5C285.401 865.1 369.801 1405.9 408.701 1595.6C435.601 1726.9 647.801 1684.7 624.501 1547.4C587.401 1328.9 533.101 851 519.501 784.7C494.101 661.8 287.801 658.3 285.901 825.5Z" fill="#B6B8BF"/>
<path d="M572.301 913.5C621.801 840.8 530.301 402.6 453.801 323.6C377.301 244.6 267.301 303 241.001 335.8C203.801 379.3 185.301 590 157.401 639.5C129.501 689 42.8008 848.5 107.901 933.7C173.001 1018.9 501.701 1017.1 572.301 913.5Z" fill="#598FFC"/>
<path d="M260.7 807.3C295.5 983 36.0004 1055.3 6.50045 861.9C-43.7996 532 213 434.7 231.4 346.3C345.7 409.3 337.8 464.6 337.8 464.6C337.8 464.6 213.5 568.7 260.7 807.3Z" fill="#598FFC"/>
<path d="M254.701 639.4C239.501 692.1 255.001 747.7 264.201 800.3C267.201 813.9 269.301 827.8 269.501 841.7C274.201 923 200.401 1002.6 116.801 977.3C203.501 993.5 269.101 910.5 258.901 828.6C251.601 766.6 230.201 699.8 254.701 639.4Z" fill="#1A50BC"/>
<path d="M450.5 319.3C450.5 319.3 543 458.1 614.1 520.5C685.2 582.9 869.1 692 790.5 821.2C711.9 950.4 471 793.9 448.6 589.7C426.2 385.5 450.5 319.3 450.5 319.3Z" fill="#598FFC"/>
<path d="M352.452 372.242C403.984 367.505 444.259 347.348 442.408 327.219C440.558 307.09 397.284 294.613 345.752 299.35C294.22 304.087 253.945 324.244 255.796 344.373C257.646 364.502 300.921 376.979 352.452 372.242Z" fill="#1A50BC"/>
<path d="M355.801 319.3C321.801 319.3 292.001 337.2 275.101 364C292.901 371.7 321.101 375.2 352.401 372.3C383.201 369.5 410.001 361.1 426.201 350.5C408.801 331.3 383.701 319.3 355.801 319.3Z" fill="#7F4837"/>
<path d="M347.601 348C362.201 347.3 373.501 334.9 372.801 320.3L369.901 258.7C369.201 244.1 356.801 232.8 342.201 233.5C327.601 234.2 316.301 246.6 317.001 261.2L319.901 322.8C320.601 337.4 333.001 348.7 347.601 348Z" fill="#7F4837"/>
<path d="M266.101 174.6C268.701 238.6 311.201 288.9 345.401 287.6C378.801 286.3 417.901 232.7 415.301 168.6C412.701 104.6 375.001 58.5 336.201 60.1C297.501 61.6 263.501 110.5 266.101 174.6Z" fill="#874D3D"/>
<path d="M327.8 60.9001C325.5 65.5001 328.1 63.6001 333.5 67.4001C335.9 69.1001 341.1 67.9002 344.2 70.3001C346.7 72.2001 347 77.5001 349.8 79.9001C352.3 82.0001 357.6 81.2001 360.3 83.6001C362.8 85.8001 362.6 91.1001 365.2 93.6001C367.6 95.9001 372.9 95.5001 375.4 98.1001C377.8 100.5 377.2 105.8 379.6 108.4C381.9 110.9 387.2 111 389.4 113.7C391.6 116.3 390.6 121.5 392.7 124.3C394.7 127 400 127.6 402 130.5C403.9 133.3 402.4 138.4 404.2 141.4C406 144.3 411.1 145.4 412.8 148.5C414.4 151.5 415 157.4 416.4 160.6C418.3 155.9 417.3 148.8 418.8 144.3C420.4 139.5 425.6 135.8 426.8 131.3C428 126.3 425.1 120.7 425.7 116.1C426.4 111 430.7 106.3 430.7 101.7C430.7 96.5001 426.2 92.1001 425.1 87.5001C423.9 82.5001 425.8 76.4001 423.4 72.4001C420.9 68.2001 414.7 67.2001 410.7 64.2001C407 61.4001 404.5 55.7001 399.5 54.0001C395.2 52.6001 389.6 55.5001 384.3 54.9001C379.8 54.4001 375 50.3001 369.7 50.6001C365.1 50.8001 360.6 55.3001 355.4 56.0001C350.8 56.7001 345.3 53.6001 340.2 54.8001C335.3 55.4001 332.7 59.5001 327.8 60.9001Z" fill="#3F2C34"/>
<path d="M343.701 53.7C337.101 48.6 338.301 48.9 328.401 48.7C323.501 48.6 318.001 52.7 311.901 53.4C306.701 54 300.401 51 294.801 52.5C289.601 53.9 285.701 59.6 280.701 62.1C275.901 64.5 269.001 64.3 264.701 68C260.701 71.5 259.901 78.2 256.701 83.1C253.801 87.4 247.701 90.6 245.701 96.1C243.901 101 246.401 107.3 245.401 113.2C244.601 118.3 240.101 123.5 240.001 129.4C239.901 134.6 244.101 140 244.601 145.9C245.001 151.1 241.801 157.1 242.801 162.9C243.701 168.1 248.701 172.8 250.001 178.4C251.201 183.6 250.101 191.3 251.701 196.9C252.501 192 252.201 185 253.601 180.7C255.101 176.1 260.701 173.4 262.801 169.5C265.101 165.3 264.401 159.2 267.301 155.7C270.301 152 276.401 151.4 279.801 148.2C283.201 145 284.301 139 288.001 136.2C291.801 133.4 297.901 133.9 301.701 131.3C305.601 128.6 307.301 122.8 311.101 120.2C315.001 117.5 321.201 118 324.801 115.2C328.601 112.2 329.401 106.2 332.501 102.9C335.701 99.4 341.701 98 343.901 93.9C346.001 89.9 343.901 84.3 344.701 79.4C345.501 75.2 349.701 70.7 349.301 65.7C348.901 61.5 344.901 58.6 343.701 53.7Z" fill="#3F2C34"/>
<path d="M165.201 919.8C224.301 906.4 232.401 1014.4 189.001 1030.2C143.501 1046.7 95.0006 935.8 165.201 919.8Z" fill="#874D3D"/>
<path d="M743.3 783.1C691 813.7 759.1 898.1 801.5 879.8C845.9 860.7 805.5 746.7 743.3 783.1Z" fill="#874D3D"/>
<path d="M345.3 169.2C344.8 176.4 355.5 206.9 342.1 212.7C334.7 214.2 326 211.5 326 211.5C328.8 217.4 341.6 219.6 350.1 216.6C358.6 213.6 349.9 179.1 345.3 169.2Z" fill="#BD7346"/>
<path d="M493.7 436.6C514.2 463.3 567.7 580.3 562.1 646.5C531.9 537.7 493.7 436.6 493.7 436.6Z" fill="#1A50BC"/>
<path d="M346.701 1031.8C351.801 1065.1 308.001 1412.7 285.801 1515C294.201 1399.1 293.701 1402.8 346.701 1031.8Z" fill="#8E919B"/>
<path d="M383.101 202.1C366.901 202.1 353.801 188.5 353.801 171.7C353.801 155 367.001 141.3 383.101 141.3C399.201 141.3 412.401 154.9 412.401 171.7C412.401 188.5 399.301 202.1 383.101 202.1ZM383.101 144.4C368.601 144.4 356.801 156.7 356.801 171.8C356.801 186.9 368.601 199.2 383.101 199.2C397.601 199.2 409.401 186.9 409.401 171.8C409.401 156.7 397.601 144.4 383.101 144.4Z" fill="white"/>
<path d="M355.2 174.7C354.4 174.7 353.7 174 353.7 173.2C353.7 167.2 348.7 162.4 342.6 162.4C336.5 162.4 331.5 167.3 331.5 173.2C331.5 174 330.8 174.7 330 174.7C329.2 174.7 328.5 174 328.5 173.2C328.5 165.6 334.8 159.4 342.6 159.4C350.4 159.4 356.7 165.6 356.7 173.2C356.7 174.1 356.1 174.7 355.2 174.7Z" fill="white"/>
<path d="M300.3 208.1C283 208.1 269 193.6 269 175.7C269 157.8 283 143.3 300.3 143.3C317.6 143.3 331.6 157.8 331.6 175.7C331.6 193.6 317.5 208.1 300.3 208.1ZM300.3 146.3C284.7 146.3 272 159.5 272 175.7C272 191.9 284.7 205.1 300.3 205.1C315.9 205.1 328.6 191.9 328.6 175.7C328.6 159.5 315.9 146.3 300.3 146.3Z" fill="white"/>
</svg>
