<svg width="821" height="1749" viewBox="0 0 821 1749" fill="none" xmlns="http://www.w3.org/2000/svg">
<path d="M531.3 1684.5C531.3 1684.5 500.7 1693.2 499.5 1696C498.3 1698.7 496.5 1723.4 500.7 1732.4C507.9 1747.9 595.2 1753.5 613.3 1745.3C631.4 1737.1 531.3 1684.5 531.3 1684.5Z" fill="#F4BCD4"/>
<path d="M161.101 1654.9C161.101 1654.9 192.501 1660.1 194.001 1662.6C195.501 1665.2 200.201 1689.4 197.001 1698.9C191.601 1715.1 105.601 1730.7 86.6006 1724.7C67.6006 1718.7 161.101 1654.9 161.101 1654.9Z" fill="#F4BCD4"/>
<path d="M167.3 1680.1C157.1 1678.1 150.3 1668.2 152.3 1658L165.2 1590.3C167.2 1580.1 177.1 1573.3 187.3 1575.3C197.5 1577.3 204.3 1587.2 202.3 1597.4L189.4 1665.1C187.4 1675.3 177.5 1682 167.3 1680.1Z" fill="#874D3D"/>
<path d="M519.8 1711.5C509.4 1712.5 500.2 1704.8 499.3 1694.4L493 1625.8C492 1615.4 499.7 1606.2 510.1 1605.3C520.5 1604.3 529.7 1612 530.6 1622.4L536.9 1691C537.9 1701.4 530.2 1710.6 519.8 1711.5Z" fill="#874D3D"/>
<path d="M529.801 132.4C529.301 124 521.801 116.6 519.401 108.3C517.001 100.3 519.301 90.0999 515.201 82.3999C511.301 74.9999 501.601 71.0999 496.201 64.2999C491.001 57.7999 489.501 47.3999 483.001 41.5999C476.801 35.9999 466.301 35.5999 459.001 30.9999C435.601 9.29989 445.301 13.6999 413.201 10.7999C384.301 -3.30011 395.301 -1.70011 363.401 4.29989C355.601 4.29989 347.201 0.499891 340.801 3.79989C335.301 6.69989 333.101 14.1999 329.301 19.9999C325.701 18.7999 322.001 17.8999 319.001 16.2999C296.301 -1.50011 295.801 6.39989 271.901 12.8999C238.601 11.3999 248.801 8.49989 221.301 26.7999C189.001 34.8999 197.801 29.1999 177.201 54.9999C170.401 60.9999 159.901 63.3999 154.501 70.2999C148.801 77.3999 148.901 88.1999 144.801 95.8999C140.501 103.9 131.601 109.9 129.101 118.3C126.501 126.9 130.801 136.8 130.201 145.6C129.601 154.5 124.101 163.8 125.701 172.6C127.301 181.3 135.601 188 139.401 196.2C147.901 226.6 144.201 220.6 171.401 236.8C193.001 262.1 184.201 255.9 216.701 263C224.601 266.2 231.301 274.7 240.301 277.2C248.401 278.2 256.401 272.5 263.601 271.8C271.601 271.1 280.301 275.2 287.301 272.7C294.601 270.1 298.701 261.2 305.001 256.8C311.301 252.4 320.901 251.8 326.201 246C331.301 240.4 331.101 230.6 335.101 223.9C335.601 223.1 336.201 222.3 336.801 221.6C338.201 222.6 339.401 223.6 340.501 224.8C345.501 230.3 347.001 239.7 353.001 243.9C359.001 248.1 368.201 246.2 375.301 248.7C398.301 262.4 391.401 261.3 417.201 252.8C449.801 249.9 438.701 255.2 463.601 233.9C471.401 229.4 481.801 229.5 488.101 224.4C495.001 218.7 496.701 208.4 501.801 202.1C507.301 195.2 516.801 191 520.301 183.5C523.901 175.6 520.801 165.7 522.301 157.4C523.901 149.1 530.301 140.9 529.801 132.4Z" fill="#3F2C34"/>
<path d="M624.4 1547.2C587.3 1328.7 533 850.8 519.4 784.5C502.5 702.6 196 699.1 168.9 809.7C142 904 90.4003 1347.7 84.1003 1549.2C80.4003 1667.3 263.1 1704.8 285.8 1547.1C299.3 1453.3 318.9 1315.5 337.1 1183.3C362 1339.2 390.3 1506.2 408.6 1595.4C435.6 1726.7 647.7 1684.5 624.4 1547.2Z" fill="#B6B8BF"/>
<path d="M254.701 639.2C239.501 691.9 255.001 747.5 264.201 800.1C267.201 813.7 269.301 827.6 269.501 841.5C274.201 922.8 200.401 1002.4 116.801 977.1C203.501 993.3 269.101 910.3 258.901 828.4C251.601 766.5 230.201 699.7 254.701 639.2Z" fill="#1A50BC"/>
<path d="M614.1 520.3C552.1 465.7 481.6 347.3 455.4 319.1C372.5 244.2 236.8 314.9 231.4 346.1C213 434.5 -43.7996 531.8 6.50045 861.8C21.8004 962.2 99.2004 991 165.1 970.8C310.2 1014.9 612.5 1014.7 586.2 821.7C662.2 877.8 749 889.2 790.5 821C869.2 691.8 685.3 582.6 614.1 520.3Z" fill="#598FFC"/>
<path d="M352.446 372.042C403.978 367.305 444.253 347.148 442.403 327.019C440.552 306.89 397.278 294.413 345.746 299.15C294.214 303.887 253.939 324.044 255.79 344.173C257.64 364.302 300.915 376.779 352.446 372.042Z" fill="#1A50BC"/>
<path d="M355.801 319.1C321.801 319.1 292.001 337 275.101 363.8C292.901 371.5 321.101 375 352.401 372.1C383.201 369.3 410.001 360.9 426.201 350.3C408.801 331.2 383.701 319.1 355.801 319.1Z" fill="#7F4837"/>
<path d="M347.601 347.9C362.201 347.2 373.501 334.8 372.801 320.2L369.901 258.6C369.201 244 356.801 232.7 342.201 233.4C327.601 234.1 316.301 246.5 317.001 261.1L319.901 322.7C320.601 337.3 333.001 348.5 347.601 347.9Z" fill="#7F4837"/>
<path d="M266.101 174.4C268.701 238.4 311.201 288.7 345.401 287.4C378.801 286.1 417.901 232.5 415.301 168.4C412.701 104.4 375.001 58.2998 336.201 59.8998C297.501 61.3998 263.501 110.4 266.101 174.4Z" fill="#874D3D"/>
<path d="M327.8 60.6998C325.5 65.2998 328.1 63.3998 333.5 67.1998C335.9 68.8998 341.1 67.6998 344.2 70.0998C346.7 71.9998 347 77.2998 349.8 79.6998C352.3 81.7998 357.6 80.9998 360.3 83.3998C362.8 85.5998 362.6 90.8998 365.2 93.3998C367.6 95.6998 372.9 95.2998 375.4 97.8998C377.8 100.3 377.2 105.6 379.6 108.2C381.9 110.7 387.2 110.8 389.4 113.5C391.6 116.1 390.6 121.3 392.7 124.1C394.7 126.8 400 127.4 402 130.3C403.9 133.1 402.4 138.2 404.2 141.2C415.2 149.8 412.4 146.9 416.3 160.4C418.2 155.7 417.2 148.6 418.7 144.1C428.4 128.6 427.5 133.9 425.6 115.8C431.6 99.6998 432.5 102.8 425 87.1998C423.8 82.1998 425.7 76.0998 423.3 72.0998C420.8 67.8998 414.6 66.8998 410.6 63.8998C399.6 51.3998 400.7 52.8998 384.1 54.5998C367.3 48.5998 372 49.0998 355.2 55.6998C338.2 53.9998 343.4 51.7998 327.8 60.6998Z" fill="#3F2C34"/>
<path d="M343.701 53.4998C334.801 44.0998 323.701 49.9998 311.901 53.1998C293.501 51.2998 295.701 50.2998 280.701 61.8998C275.901 64.2998 269.001 64.0998 264.701 67.7998C260.701 71.2998 259.901 77.9998 256.701 82.8998C253.801 87.1998 247.701 90.3998 245.701 95.8998C243.901 100.8 246.401 107.1 245.401 113C244.601 118.1 240.101 123.3 240.001 129.2C239.901 134.4 244.101 139.8 244.601 145.7C245.001 150.9 241.801 156.9 242.801 162.7C243.701 167.9 248.701 172.6 250.001 178.2C251.201 183.4 250.101 191.1 251.701 196.7C252.801 181.1 252.101 180.3 262.901 169.3C267.601 152.6 265.101 156.2 279.901 148C289.901 132.6 285.001 137 301.901 131.1C305.801 128.4 307.501 122.6 311.301 120C327.501 114.1 324.101 118.1 332.701 102.7C335.901 99.1998 341.901 97.7998 344.101 93.6998C346.201 89.6998 344.101 84.0998 344.901 79.1998C350.501 65.0998 351.101 67.9998 343.701 53.4998Z" fill="#3F2C34"/>
<path d="M165.201 919.7C224.301 906.3 232.401 1014.3 189.001 1030.1C143.501 1046.5 95.0006 935.6 165.201 919.7Z" fill="#874D3D"/>
<path d="M743.3 783C691 813.6 759.1 898 801.5 879.7C845.9 860.6 805.5 746.5 743.3 783Z" fill="#874D3D"/>
<path d="M345.3 169C344.8 176.2 355.5 206.7 342.1 212.5C334.7 214 326 211.3 326 211.3C328.8 217.2 341.6 219.4 350.1 216.4C358.6 213.5 349.9 179 345.3 169Z" fill="#BD7346"/>
<path d="M493.7 436.4C514.2 463.1 567.7 580.1 562.1 646.3C531.9 537.6 493.7 436.4 493.7 436.4Z" fill="#1A50BC"/>
<path d="M348.701 1031.7C353.801 1065 310.001 1412.6 287.801 1514.9C296.301 1398.9 295.701 1402.5 348.701 1031.7Z" fill="#8E919B"/>
</svg>
