<svg width="952" height="1685" viewBox="0 0 952 1685" fill="none" xmlns="http://www.w3.org/2000/svg">
<path d="M296.899 1613.3C296.899 1613.3 328.299 1618.5 329.799 1621C331.299 1623.6 335.999 1647.8 332.799 1657.3C327.399 1673.5 241.399 1689.1 222.399 1683.1C203.399 1677.1 296.899 1613.3 296.899 1613.3Z" fill="#B3B3B3"/>
<path d="M589.999 1577.7C589.999 1577.7 558.599 1582.9 557.099 1585.4C555.599 1588 550.899 1612.2 554.099 1621.7C559.499 1637.9 645.499 1653.5 664.499 1647.5C683.499 1641.5 589.999 1577.7 589.999 1577.7Z" fill="#B3B3B3"/>
<path d="M658.7 711.5L288.3 818.7C278.2 866 188.7 1384.9 268 1585.8C286.6 1627.1 365.9 1675.3 403.9 1543.6C418 1494.7 438.9 1429 459.3 1348.4C461.2 1375 463.2 1399.9 465.3 1422.3C485.6 1640.9 619.7 1622.3 646.7 1516.8C720.9 1261.1 668.9 761.3 658.7 711.5Z" fill="#F4BCD4"/>
<path d="M522.4 828.3C522.4 828.3 521.7 1161.2 460.1 1345C523.2 1200.3 550.4 949.6 522.4 828.3Z" fill="#C18AA1"/>
<path d="M945.899 611.4C969.099 648 909.099 695.1 882.399 653.1C853.899 608.2 921.999 573.6 945.899 611.4Z" fill="#BD7346"/>
<path d="M917.799 568.1C893.799 492.6 799.299 488.3 701.399 424.1C624.699 373.8 552.499 314.3 520.899 287.4C471.399 240.7 431.299 237.8 396.099 244.9C358.299 252.6 326.999 266.4 301.299 284.8C262.399 301.9 215.999 321.7 192.399 329.2C147.399 343.5 -39.1006 425.4 7.39944 595C37.8994 706.2 136.099 749.3 215.299 748.1C217.399 757 219.599 765.1 221.599 772.3C253.699 886.2 313.599 887.1 464.599 864.3C615.699 841.5 693.299 774.9 693.299 734.3C695.299 708.8 694.099 679.9 689.899 649.2C710.599 654.7 730.299 659.4 748.199 663.7C858.899 690.1 932.999 615.9 917.799 568.1ZM200.299 463.9C198.999 471.4 197.799 479 196.799 486.6C195.599 478.9 196.599 471.3 200.299 463.9Z" fill="#598FFC"/>
<path d="M332.199 661C320.099 588 240.599 555.5 204.099 496.4C204.699 474 213.699 450.9 234.099 439.4C235.299 438.7 234.499 436.9 233.199 437.2C216.099 440.7 201.899 453.7 196.199 470.2C197.999 441 221.299 420.3 240.799 401.2C241.399 400.6 240.599 399.7 239.899 400.1C199.599 424.5 167.199 475 205.799 516.3C238.699 559.9 289.999 589.5 314.599 639.3C346.699 704.3 272.399 746 216.099 746.1C214.299 746.2 214.199 748.9 216.099 749C268.999 754.2 338.299 722.5 332.199 661Z" fill="#1A50BC"/>
<path d="M278.599 718.2C321.999 718.2 329.599 794.1 279.799 794.1C226.599 794.2 233.899 718.2 278.599 718.2Z" fill="#BD7346"/>
<path d="M325.199 297.1C307.699 263.4 451.999 228 473.899 269.3C495.799 310.6 342.699 330.9 325.199 297.1Z" fill="#1A50BC"/>
<path d="M443.4 304.4C441.4 284.7 421 269.3 396.1 269.3C369.9 269.3 348.6 286.4 348.6 307.6C348.6 308.8 348.7 309.9 348.8 311C374.7 317.1 415.1 314 443.4 304.4Z" fill="#AB6841"/>
<path d="M404.8 309.3H393.6C380.3 309.3 369.5 298.5 369.5 285.2V192.3C369.5 179 380.3 168.2 393.6 168.2H404.8C418.1 168.2 428.9 179 428.9 192.3V285.2C428.9 298.5 418.1 309.3 404.8 309.3Z" fill="#AB6841"/>
<path d="M421.2 25.8C436 39.2 497.3 211.7 410.6 237.6C332.6 260 298 85.1 298 85.1C298 85.1 406.4 12.4 421.2 25.8Z" fill="#BD7346"/>
<path d="M327.199 174.4C326.599 172.5 305.599 111.1 322.099 94.0001C338.599 76.9001 420.799 39.6001 428.399 22.5001C435.999 5.40009 359.999 -24.9999 304.899 38.3001C249.799 101.6 327.199 174.4 327.199 174.4Z" fill="#3F2C34"/>
<path d="M504.1 273C504.1 273 640.6 378.9 690 649.2C699.7 521.9 611.4 352.8 504.1 273Z" fill="#1A50BC"/>
<path d="M400.9 107.7C402.4 127.3 429.9 143.5 414.2 153.4C404.7 160.4 390 155.4 390 155.4C399.6 169.4 421.3 162 426.1 155.6C432.5 146.9 404.9 125.6 400.9 107.7Z" fill="#965738"/>
</svg>
