<svg width="847" height="1711" viewBox="0 0 847 1711" fill="none" xmlns="http://www.w3.org/2000/svg">
<path d="M446.5 298.9C446.1 298.9 446 302.8 445.8 304.3C446.1 303.9 446.6 303.2 447 302.7C446.9 301 446.8 298.9 446.5 298.9Z" fill="#3F2C34"/>
<path d="M445.6 304.9C445.7 304.9 445.8 304.7 445.8 304.3C445.6 304.7 445.4 304.9 445.6 304.9Z" fill="#3F2C34"/>
<path d="M433.4 294.9C433 294.9 432.9 298.5 432.6 300.1C433 299.5 433.7 298.7 434 298.1C433.9 296.6 433.7 294.9 433.4 294.9Z" fill="#3F2C34"/>
<path d="M432.3 300.9C432.4 300.9 432.5 300.6 432.6 300.1C432.3 300.6 432.1 300.9 432.3 300.9Z" fill="#3F2C34"/>
<path d="M418.2 294.5C417.8 294.5 417.7 298.1 417.4 299.7C417.8 299.1 418.5 298.3 418.8 297.7C418.7 296.1 418.5 294.5 418.2 294.5Z" fill="#3F2C34"/>
<path d="M417.1 300.5C417.2 300.5 417.3 300.2 417.4 299.7C417.1 300.1 416.9 300.5 417.1 300.5Z" fill="#3F2C34"/>
<path d="M333.5 300.7C333.6 300.7 333.7 300.5 333.7 300.1C333.5 300.5 333.4 300.7 333.5 300.7Z" fill="#3F2C34"/>
<path d="M334.5 294.7C334.1 294.7 334 298.6 333.8 300.1C334.1 299.7 334.6 299 335 298.5C334.8 296.8 334.7 294.7 334.5 294.7Z" fill="#3F2C34"/>
<path d="M321.4 290.7C321 290.7 320.9 294.3 320.6 295.9C321 295.3 321.7 294.5 322 293.9C321.8 292.4 321.7 290.7 321.4 290.7Z" fill="#3F2C34"/>
<path d="M320.3 296.7C320.4 296.7 320.5 296.4 320.6 295.9C320.3 296.4 320.1 296.7 320.3 296.7Z" fill="#3F2C34"/>
<path d="M305.1 296.2C305.2 296.2 305.3 295.9 305.4 295.4C305.1 295.9 304.9 296.2 305.1 296.2Z" fill="#3F2C34"/>
<path d="M306.2 290.2C305.8 290.2 305.7 293.8 305.4 295.4C305.8 294.8 306.5 294 306.8 293.4C306.6 291.9 306.5 290.2 306.2 290.2Z" fill="#3F2C34"/>
<path d="M486.4 115C487.1 110.4 493.4 106.2 493.4 101.4C493.4 96.6002 487.1 92.4002 486.4 87.8002C485.7 83.1002 490.6 77.3002 489.3 72.8002C488 68.3002 480.7 66.0002 478.8 61.8002C476.8 57.5002 479.8 50.5002 477.3 46.6002C474.8 42.7002 467.2 42.5002 464.1 39.0002C461 35.5002 462 27.9002 458.4 24.9002C454.9 21.8002 447.5 23.8002 443.6 21.3002C439.7 18.8002 438.4 11.3002 434.2 9.3002C430 7.4002 423.5 11.3002 419 10.0002C414.6 8.7002 411.2 1.9002 406.6 1.2002C402 0.500197 396.9 6.2002 392.2 6.2002C387.5 6.2002 382.4 0.600197 377.8 1.2002C373.1 1.9002 369.8 8.7002 365.4 10.0002C360.9 11.3002 354.4 7.4002 350.2 9.3002C345.9 11.3002 344.7 18.8002 340.8 21.3002C336.9 23.8002 329.5 21.9002 326 24.9002C322.5 28.0002 323.4 35.5002 320.3 39.0002C317.2 42.5002 309.6 42.7002 307.1 46.6002C304.6 50.5002 307.6 57.5002 305.6 61.8002C303.7 66.0002 296.4 68.3002 295.1 72.8002C293.8 77.2002 298.6 83.1002 298 87.8002C297.3 92.4002 291 96.6002 291 101.4C291 106.1 297.3 110.4 298 115C298.7 119.7 293.8 125.5 295.1 130C296.6 135.1 305.1 137.1 306.1 142.5C294.4 158.4 305.8 156.6 307.1 168.9C307.1 176.7 301.1 176.7 301.1 184.5C301.1 192.3 307.1 192.3 307.1 200C307.1 207.8 301.1 207.8 301.1 215.6C301.1 223.4 307.1 223.4 307.1 231.1C307.1 238.9 301.1 238.9 301.1 246.6C301.1 254.4 307.1 254.4 307.1 262.1C307.1 269.9 301.1 269.9 301.1 277.7C300.9 285.5 307.3 285.7 306.9 293.5C307.7 300.9 307.8 291.1 308.5 290.3C309.1 290.3 309.1 296.3 309.6 296.3C310.2 296.3 310.2 290.3 310.7 290.3C311.3 290.3 311.3 296.3 311.8 296.3C312.4 296.3 312.4 290.3 312.9 290.3C313.5 290.3 313.5 296.3 314 296.3C314.5 296.3 314.6 290.3 315.1 290.3C315.7 290.3 319.2 294.1 319.2 293.5C319.8 285.7 314.4 286.2 313.2 278.2C312 270.5 319.2 270 319.2 262.2C319.2 254.4 313.2 254.4 313.2 246.6C313.2 238.8 319.2 238.8 319.2 231C319.2 223.2 313.2 223.2 313.2 215.5C313.2 207.7 319.2 207.7 319.2 199.9C319.2 192.1 313.2 192.1 313.2 184.4C313.8 175.1 324.5 171.6 316.4 161.3C319.9 162.6 322.2 165.5 322.2 169.3C322.2 177.1 316.2 177.1 316.2 184.9C316.2 192.7 322.2 192.7 322.2 200.4C322.2 208.2 316.2 208.2 316.2 216C316.2 223.8 322.2 223.8 322.2 231.5C322.2 239.3 316.2 239.3 316.2 247C316.2 254.8 322.2 254.8 322.2 262.5C322.2 270.3 316.2 270.3 316.2 278.1C316 285.9 322.4 286.1 322 293.9C322.8 301.4 322.9 291.5 323.6 290.7C324.2 290.7 324.2 296.7 324.7 296.7C325.3 296.7 325.3 290.7 325.8 290.7C326.4 290.7 326.4 296.7 326.9 296.7C327.5 296.7 327.5 290.7 328 290.7C328.6 290.7 328.6 296.7 329.1 296.7C329.7 296.7 329.7 290.7 330.2 290.7C331.2 290.7 335 296.1 334.3 292.9C334.8 294.2 336.3 296.8 334.9 298.6C335.6 305 335.7 295.2 336.2 294.8C336.7 294.8 336.7 300.8 337.1 300.8C337.6 300.8 337.6 294.8 338 294.8C338.5 294.8 338.5 300.8 338.9 300.8C339.4 300.8 339.4 294.8 339.8 294.8C340.3 294.8 340.3 300.8 340.7 300.8C341.8 299.4 340 292.1 343.3 296.2C343.3 296.3 343.3 296.4 343.4 296.3C346.1 299.1 345.5 297.6 345.4 295.5C346.3 299 346.3 290.1 346.9 290.4C347.5 290.4 347.5 296.4 348.1 296.4C348.7 296.4 348.7 290.4 349.3 290.4C349.9 290.4 349.9 296.4 350.5 296.4C351.1 296.4 351.1 290.4 351.7 290.4C352.3 290.4 352.3 296.4 352.9 296.4C353.5 296.4 353.5 290.4 354.1 290.4C356.3 291.4 359 296.3 358.3 291.2C358.5 290.9 358.8 290.5 359 290.2C358.8 285.9 358.2 285 358 289.7C356.2 285.7 348.9 277.5 353.8 271.7C351.6 280.1 361.2 282.3 359 290.1C359.7 296.5 359.8 286.7 360.3 286.3C360.8 286.3 360.8 292.3 361.2 292.3C361.7 292.3 361.7 286.3 362.1 286.3C362.6 286.3 362.6 292.3 363 292.3C363.5 292.3 363.5 286.3 363.9 286.3C364.4 286.3 364.4 292.3 364.8 292.3C365.2 292.3 365.3 286.3 365.7 286.3C366.2 286.3 369.6 289.9 369.6 289.5C370.1 281.7 364.8 282.2 363.6 274.2C362.5 266.5 369.6 266 369.6 258.2C369.6 250.4 363.6 250.4 363.6 242.6C363.6 234.8 369.6 234.8 369.6 227C369.6 219.2 363.6 219.2 363.6 211.5C363.6 203.8 369.4 203.7 369.6 196.2C377.9 206.8 382.2 198.5 391.6 196.6C402.5 199.1 404.9 206.8 414.6 195.2C424.4 207.1 413.4 209.2 412.5 219.7C412.5 227.5 418.5 227.5 418.5 235.3C418.5 243.1 412.5 243.1 412.5 250.8C412.5 258.6 418.5 258.6 418.5 266.3C418.5 274.1 412.5 274.1 412.5 281.9C412.3 289.7 418.7 289.9 418.3 297.7C419.1 305.1 419.2 295.3 419.9 294.5C420.5 294.5 420.5 300.5 421 300.5C421.6 300.5 421.6 294.5 422.1 294.5C422.7 294.5 422.7 300.5 423.2 300.5C423.8 300.5 423.8 294.5 424.3 294.5C424.9 294.5 424.9 300.5 425.4 300.5C425.9 300.5 426 294.5 426.5 294.5C427.1 294.5 430.6 298.3 430.6 297.7C431.2 289.9 425.8 290.4 424.6 282.4C423.4 274.7 430.6 274.2 430.6 266.4C430.6 258.6 424.6 258.6 424.6 250.8C424.6 243 430.6 243 430.6 235.2C430.6 227.4 424.6 227.4 424.6 219.7C425.9 207.4 437.3 209.2 425.6 193.3C426.6 193.5 427.7 193.7 428.7 193.9C440.3 209.6 429 207.9 427.7 220.2C427.7 228 433.7 228 433.7 235.8C433.7 243.6 427.7 243.6 427.7 251.3C427.7 259.1 433.7 259.1 433.7 266.8C433.7 274.6 427.7 274.6 427.7 282.4C427.5 290.2 433.9 290.4 433.5 298.2C434.3 305.7 434.4 295.8 435.1 295C435.7 295 435.7 301 436.2 301C436.8 301 436.8 295 437.3 295C437.9 295 437.9 301 438.4 301C439 301 439 295 439.5 295C440.1 295 440.1 301 440.6 301C441.1 301 441.2 295 441.7 295C442.7 295 446.5 300.4 445.8 297.2C446.3 298.5 447.8 301.1 446.4 302.9C447.1 309.3 447.2 299.5 447.7 299.1C448.2 299.1 448.2 305.1 448.6 305.1C449.1 305.1 449.1 299.1 449.5 299.1C450 299.1 450 305.1 450.4 305.1C450.9 305.1 450.9 299.1 451.3 299.1C451.8 299.1 451.8 305.1 452.2 305.1C453.3 303.7 451.5 296.4 454.8 300.5C454.8 300.6 454.8 300.7 454.9 300.6C457.6 303.4 457 301.9 456.9 299.8C457.8 303.3 457.8 294.4 458.4 294.7C459 294.7 459 300.7 459.6 300.7C460.2 300.7 460.2 294.7 460.8 294.7C461.4 294.7 461.4 300.7 462 300.7C462.6 300.7 462.6 294.7 463.2 294.7C463.8 294.7 463.8 300.7 464.4 300.7C465 300.7 465 294.7 465.6 294.7C467.8 295.7 470.5 300.6 469.8 295.5C470 295.2 470.3 294.8 470.5 294.5C470.3 290.2 469.7 289.3 469.5 294C467.7 290 460.4 281.8 465.3 276C463.1 284.4 472.7 286.6 470.5 294.4C471.2 300.8 471.3 291 471.8 290.6C472.3 290.6 472.3 296.6 472.7 296.6C473.2 296.6 473.2 290.6 473.6 290.6C474.1 290.6 474.1 296.6 474.5 296.6C475 296.6 475 290.6 475.4 290.6C475.9 290.6 475.9 296.6 476.3 296.6C476.8 296.6 476.8 290.6 477.2 290.6C477.7 290.6 481.1 294.2 481.1 293.8C481.6 286 476.3 286.5 475.1 278.5C474 270.8 481.1 270.3 481.1 262.5C481.1 254.7 475.1 254.7 475.1 246.9C475.1 239.1 481.1 239.1 481.1 231.3C481.1 223.5 475.1 223.5 475.1 215.8C475.1 208 481.1 208 481.1 200.2C481.1 192.4 475.1 192.4 475.1 184.7C475.1 176.9 481.1 176.9 481.1 169.2C481.1 162.8 477 161.6 475.6 157.1C477.9 154.7 477.2 151 477 147.4C478.8 144.9 481.5 142.2 481 137.4C494.7 129.5 487.1 125.6 486.4 115ZM345.4 201.2C344 196.4 339 194.2 339.9 187.5C341.3 192.3 346.3 194.5 345.4 201.2ZM345.5 231C345.5 231.5 345.5 231.9 345.4 232.3C344 227.5 339 225.3 339.9 218.6C341.2 223.4 345.5 224.5 345.5 231ZM345.5 262.1C345.5 262.6 345.5 263 345.4 263.4C344 258.6 339 256.4 339.9 249.7C341.2 254.5 345.5 255.6 345.5 262.1ZM329.7 179.5C330.9 179.7 332.2 179.8 333.5 179.9C331.6 182.2 329.1 185.4 329.7 190C328 187.7 328 181.9 329.7 179.5ZM329.6 282.1C329.6 282.3 329.6 282.4 329.6 282.6C324.4 273.4 335.1 270.3 334.3 261.4C339.3 270.1 329.9 273.9 329.6 282.1ZM329.6 251C329.6 251.4 329.6 251.8 329.7 252.2C324.5 243.1 335.3 239 334.4 230.2C339.3 239 329.9 242.8 329.6 251ZM329.6 219.9C329.6 220.3 329.6 220.7 329.7 221.1C324.5 212 335.3 207.9 334.4 199.1C339.3 207.9 329.9 211.7 329.6 219.9ZM345.3 293.5C345.8 292.3 344.8 288.3 344.5 291.8C342.8 289.5 339.4 285.4 339.8 280.6C341.5 286 346.1 288.9 345.7 295.2C345.6 294.5 345.5 294 345.3 293.5ZM358.6 263.7C359.9 254.7 348.5 250.4 354.1 241.1C352.9 250 364.2 254.4 358.6 263.7ZM358.6 232.5C359.8 223.6 348.4 219 354.1 209.9C352.9 218.8 364.2 223.4 358.6 232.5ZM358.6 201.4C359 198.5 358.1 195.2 356.8 193.5C357.8 193.3 358.7 193.1 359.7 192.9C360.4 195.5 359.9 199.6 358.6 201.4ZM457.5 204.2C457.5 204.7 457.5 205.1 457.4 205.5C456 200.7 451 198.5 451.9 191.8C453.2 196.6 457.5 197.6 457.5 204.2ZM457.5 235.3C457.5 235.8 457.5 236.2 457.4 236.6C456 231.8 451 229.6 451.9 222.9C453.2 227.7 457.5 228.7 457.5 235.3ZM457.5 266.4C457.5 266.9 457.5 267.3 457.4 267.7C456 262.9 451 260.7 451.9 254C453.2 258.8 457.5 259.8 457.5 266.4ZM442.6 182.4C443.9 181.1 445.4 180.6 447.3 180.3C446 185.4 440.8 187.4 441.7 194.3C439.6 191.4 440.3 184.6 442.6 182.4ZM441.6 286.4C441.6 286.6 441.6 286.7 441.6 286.9C436.4 277.7 447.1 274.6 446.3 265.7C451.3 274.3 441.9 278.2 441.6 286.4ZM441.6 255.3C441.6 255.7 441.6 256.1 441.7 256.5C436.5 247.4 447.3 243.3 446.4 234.5C451.3 243.2 441.9 247.1 441.6 255.3ZM441.6 224.2C441.6 224.6 441.6 225 441.7 225.4C436.5 216.3 447.3 212.2 446.4 203.4C451.3 212.1 441.9 216 441.6 224.2ZM457.3 297.7C457.8 296.5 456.8 292.5 456.5 296C454.8 293.7 451.4 289.6 451.8 284.8C453.5 290.2 458.1 293.1 457.7 299.4C457.6 298.8 457.5 298.2 457.3 297.7ZM470.6 267.9C471.9 258.9 460.5 254.6 466.1 245.3C464.9 254.3 476.3 258.6 470.6 267.9ZM470.6 236.8C471.8 227.9 460.4 223.3 466.1 214.2C464.9 223.1 476.3 227.6 470.6 236.8ZM470.6 205.7C471.8 196.8 460.4 192.2 466.1 183.1C464.9 192 476.3 196.5 470.6 205.7ZM472 169.1C472 171.5 471.4 173.2 470.6 174.6C471.5 168.9 467.7 165.8 465.8 162.4C466.7 161.8 467.7 161.4 468.8 160.9C470.3 163 472 164.9 472 169.1Z" fill="#3F2C34"/>
<path d="M203.5 1646.3C203.5 1646.3 234.1 1655 235.3 1657.8C236.5 1660.5 238.3 1685.2 234.1 1694.2C226.9 1709.7 139.6 1715.3 121.5 1707.1C103.4 1699 203.5 1646.3 203.5 1646.3Z" fill="#598FFC"/>
<path d="M573.6 1616.8C573.6 1616.8 542.2 1622 540.7 1624.5C539.2 1627.1 534.5 1651.3 537.7 1660.8C543.1 1677 629.1 1692.6 648.1 1686.6C667.1 1680.6 573.6 1616.8 573.6 1616.8Z" fill="#598FFC"/>
<path d="M565.801 771.6C592.701 865.9 644.301 1329.6 650.601 1531.1C654.301 1649.2 471.601 1686.7 448.901 1529C417.301 1309.6 352.301 829.8 350.801 762.2C347.901 636.8 526.001 609 565.801 771.6Z" fill="#F4BCD4"/>
<path d="M448.801 787.2C449.301 826.8 364.901 1397.6 326.001 1587.3C299.101 1718.6 86.9006 1676.4 110.201 1539.1C147.301 1320.6 201.601 812.7 215.201 746.4C240.601 623.5 446.901 620 448.801 787.2Z" fill="#F4BCD4"/>
<path d="M162.4 875.2C112.9 802.5 204.4 364.3 280.9 285.3C357.4 206.3 467.4 264.7 493.7 297.5C530.9 340.9 549.4 551.7 577.3 601.2C605.2 650.7 691.9 810.2 626.8 895.4C561.7 980.6 233 978.8 162.4 875.2Z" fill="#598FFC"/>
<path d="M585.3 761.7C595.4 940.5 864.7 945.9 845.1 751.2C811.6 419.2 538.7 389 498.8 307.9C403.8 397.4 425.3 449 425.3 449C425.3 449 571.6 518.9 585.3 761.7Z" fill="#598FFC"/>
<path d="M549.301 590.6C588.101 643.1 584.001 713 592.401 774.8C603.001 856.6 687.301 920.7 767.101 883.4C692.401 928.7 601.201 870 585.501 790.2C582.201 776.7 580.801 762.7 580.301 748.8C576.001 695.6 577.201 637.8 549.301 590.6Z" fill="#1A50BC"/>
<path d="M262.7 312C262.7 312 207.9 442.7 149.7 517.3C91.5004 591.9 -68.5996 733.6 32.9004 845.8C134.4 958 341.7 759.1 325.3 554.3C308.9 349.5 262.7 312 262.7 312Z" fill="#598FFC"/>
<path d="M479.01 306C480.86 285.871 440.586 265.714 389.054 260.977C337.522 256.24 294.247 268.717 292.397 288.846C290.547 308.975 330.822 329.132 382.353 333.869C433.885 338.606 477.16 326.129 479.01 306Z" fill="#1A50BC"/>
<path d="M378.9 280.9C412.9 280.9 442.7 298.8 459.6 325.6C441.8 333.3 413.6 336.8 382.3 333.9C351.5 331.1 324.7 322.7 308.5 312.1C325.9 293 351 280.9 378.9 280.9Z" fill="#7F4837"/>
<path d="M387.1 309.7C372.5 309 361.2 296.6 361.9 282L364.8 220.4C365.5 205.8 377.9 194.5 392.5 195.2C407.1 195.9 418.4 208.3 417.7 222.9L414.8 284.5C414.1 299.1 401.7 310.4 387.1 309.7Z" fill="#7F4837"/>
<path d="M468.6 136.2C466 200.2 423.5 250.5 389.3 249.2C355.9 247.9 316.8 194.3 319.4 130.2C322 66.2001 359.7 20.1001 398.5 21.7001C437.3 23.2001 471.2 72.2001 468.6 136.2Z" fill="#874D3D"/>
<path d="M321.501 105.1C316.501 107.4 322.701 99.2001 323.501 92.4001C323.901 89.2001 320.401 84.9001 321.101 80.8001C321.701 77.4001 326.301 74.5001 327.201 70.7001C328.001 67.2001 325.101 62.6001 326.301 58.9001C327.401 55.4001 332.401 53.3001 333.801 49.8001C335.201 46.4001 333.101 41.3001 334.801 38.0001C336.501 34.7001 341.801 33.6001 343.901 30.5001C348.501 16.5001 344.601 20.2001 358.601 14.8001C367.501 3.10009 363.001 5.30009 377.801 5.60009C381.201 4.70009 384.201 0.200088 388.101 -0.0999118C391.601 -0.399912 395.301 3.60009 399.201 3.90009C402.701 4.20009 406.801 0.800088 410.201 1.60009C413.601 2.40009 415.701 7.30009 418.901 8.60009C422.101 9.90009 427.001 7.90009 430.101 9.80009C433.001 11.6001 433.601 16.9001 436.301 19.1001C449.901 24.7001 445.601 20.0001 450.101 34.1001C461.801 43.1001 458.701 37.3001 459.701 52.2001C460.901 55.4001 465.801 57.5001 466.801 60.9001C467.701 64.2001 464.601 68.5001 465.201 72.0001C465.801 75.4001 470.201 78.3001 470.501 81.9001C465.801 96.0001 467.001 89.5001 468.101 104.9C462.201 87.5001 465.301 89.9001 450.001 79.6001C446.501 75.7001 445.701 69.3001 442.001 66.2001C438.001 62.8001 431.601 63.1001 427.401 60.6001C414.601 48.5001 417.501 49.3001 400.001 50.2001C383.801 44.0001 386.301 43.7001 371.001 52.0001C366.201 53.4001 360.001 51.8001 355.601 54.3001C351.301 56.8001 349.601 62.9001 345.801 66.4001C342.201 69.7001 335.801 70.8001 332.801 75.0001C329.901 78.9001 330.701 85.3001 328.301 90.0001C326.001 94.6001 323.201 100.2 321.501 105.1Z" fill="#3F2C34"/>
<path d="M705.8 846.9C645.2 848.6 664.3 955.3 710.3 959.7C758.5 964.3 777.9 844.8 705.8 846.9Z" fill="#874D3D"/>
<path d="M72.2004 799.6C129.3 819.9 78.3004 915.5 33.2004 905.5C-13.9996 895.1 4.30043 775.5 72.2004 799.6Z" fill="#874D3D"/>
<path d="M387.4 125.9C389.8 143.5 372.4 162.9 385.8 168.6C394 173 404 165.8 404 165.8C399.5 180 382.2 177.5 377.5 172.8C371.1 166.4 387.7 142.4 387.4 125.9Z" fill="#BD7346"/>
<path d="M241 398.2C220.5 424.9 137.6 657.5 152.2 846.8C163.1 643.5 241 398.2 241 398.2Z" fill="#1A50BC"/>
<path d="M334.5 1544C355.3 1435.5 403.2 1226.4 407.1 1034.5C407.1 1034.5 350.7 1399.4 334.5 1544Z" fill="#AF6E8D"/>
</svg>
