<svg width="852" height="1720" viewBox="0 0 852 1720" fill="none" xmlns="http://www.w3.org/2000/svg">
<path d="M243.701 1654.9C243.701 1654.9 274.301 1663.6 275.501 1666.4C276.701 1669.1 278.501 1693.8 274.301 1702.8C267.101 1718.3 179.801 1723.9 161.701 1715.7C143.601 1707.5 243.701 1654.9 243.701 1654.9Z" fill="#F4BCD4"/>
<path d="M643.9 1645.3C643.9 1645.3 612.5 1650.5 611 1653C609.5 1655.6 604.8 1679.8 608 1689.3C613.4 1705.5 699.4 1721.1 718.4 1715.1C737.4 1709.1 643.9 1645.3 643.9 1645.3Z" fill="#F4BCD4"/>
<path d="M637.7 1670.4C647.9 1668.4 654.7 1658.5 652.7 1648.3L639.8 1580.6C637.8 1570.4 627.9 1563.6 617.7 1565.6C607.5 1567.6 600.7 1577.5 602.7 1587.7L615.6 1655.4C617.6 1665.7 627.5 1672.4 637.7 1670.4Z" fill="#CE9678"/>
<path d="M255.1 1681.9C265.5 1682.9 274.7 1675.2 275.6 1664.8L281.9 1596.2C282.9 1585.8 275.2 1576.6 264.8 1575.7C254.4 1574.7 245.2 1582.4 244.3 1592.8L238 1661.4C237.1 1671.8 244.8 1681 255.1 1681.9Z" fill="#CE9678"/>
<path d="M720.9 1539.7C714.6 1338.2 633 874.4 606.1 780.2C579 669.5 272.4 673 255.6 754.9C242 821.1 187.7 1299 150.6 1517.6C127.3 1654.9 339.4 1697.2 366.4 1565.8C386.6 1467.4 419 1274.5 445.5 1106.1C473 1259.6 503.7 1429.9 519.2 1537.5C541.9 1695.3 724.6 1657.8 720.9 1539.7Z" fill="#B6B8BF"/>
<path d="M534 306C508 273.6 386.6 232.2 323.4 291.7C237.7 360.3 -126.3 490.6 45.4001 764.1C80.2001 819.5 143.9 825.9 188.5 796.2C188 837.1 192.2 868.5 202.6 883.8C273.2 987.4 602.1 989.1 667.1 904C684.7 880.9 691.2 852.4 690.7 822.2C732.1 836.6 781.1 824.5 810.1 778.4C979.3 508.9 574.2 356.7 534 306ZM234.4 503.2C226.9 532 220 562 214 591.8C208.3 555.1 218.3 525.9 234.4 503.2ZM617.6 609.7C605.5 588.1 595.1 536.1 584.2 480.6C622.8 508.8 662.4 558.9 633.1 638.2C627.2 626.8 621.8 617 617.6 609.7Z" fill="#F4BCD4"/>
<path d="M237.4 499.2C201.7 542 214.3 601.3 234.6 648.3C239.9 660.9 244.2 674.2 246 687.7C260.8 772.4 171.1 837.7 93.7002 806.2C161.5 826.3 241.6 776 237.3 701.8C237.3 675.2 224.6 651.2 217.1 626.3C203.5 584 203.1 531.9 237.4 499.2Z" fill="#AF6E8D"/>
<path d="M519.211 314.626C521.061 294.497 480.787 274.34 429.255 269.603C377.723 264.866 334.449 277.343 332.598 297.472C330.748 317.601 371.023 337.758 422.555 342.495C474.086 347.232 517.361 334.755 519.211 314.626Z" fill="#AF6E8D"/>
<path d="M419.2 289.5C453.2 289.5 483 307.4 499.9 334.2C482.1 341.9 453.9 345.4 422.6 342.5C391.8 339.7 365 331.3 348.8 320.7C366.2 301.6 391.3 289.5 419.2 289.5Z" fill="#CE9678"/>
<path d="M618.3 513.3C660.1 553.5 649.7 617.6 629.8 666.2C625.8 676.1 622.5 686.6 620.6 697.2C603.6 778.6 686.9 843.8 763.4 819.8C681.8 854.9 589.7 779.4 611.6 692C613.2 684.2 615.7 676.4 618.5 668.9C639.9 620.3 655.8 558.3 618.3 513.3Z" fill="#AF6E8D"/>
<path d="M711.3 773.4C693.4 715.5 595.8 762.4 603.8 807.9C612.3 855.6 732.6 842.3 711.3 773.4Z" fill="#DDA68E"/>
<path d="M435.1 221C486.076 221 527.4 178.288 527.4 125.6C527.4 72.9122 486.076 30.2002 435.1 30.2002C384.124 30.2002 342.8 72.9122 342.8 125.6C342.8 178.288 384.124 221 435.1 221Z" fill="#F5CBA2"/>
<path d="M427.4 318.2C412.8 317.5 401.5 305.1 402.2 290.5L405.1 228.9C405.8 214.3 418.2 203 432.8 203.7C447.4 204.4 458.7 216.8 458 231.4L455.1 293C454.4 307.7 442 318.9 427.4 318.2Z" fill="#CE9678"/>
<path d="M508.9 144.8C508.9 215.3 475.8 257.8 429.6 257.8C383.3 257.8 359.7 209.1 359.7 138.8C359.7 74.7 400 44.7 438.8 46.3C477.5 47.8 508.9 80.7 508.9 144.8Z" fill="#DDA68E"/>
<path d="M144.4 759.3C162.3 701.4 259.9 748.3 251.9 793.8C243.4 841.5 123.1 828.2 144.4 759.3Z" fill="#DDA68E"/>
<path d="M429.7 139.4C430.2 146.6 419.5 177.1 432.9 182.9C440.3 184.4 449 181.7 449 181.7C446.2 187.6 433.4 189.8 424.9 186.8C416.4 183.8 425.1 149.4 429.7 139.4Z" fill="#BD7346"/>
<path d="M424.3 998C418.7 998 436.2 1098.5 459 1182.4C455.4 1117.7 429.9 998 424.3 998Z" fill="#8E919B"/>
<path d="M473.4 17.3001C481.3 14.7001 486.3 12.8001 486.3 12.8001C477.4 12.1001 467.8 11.4001 458.1 11.1001C471.3 6.00009 480.6 1.80009 480.6 1.80009C464.9 -3.39991 398.5 1.70009 379 26.7001C369 34.4001 361.9 43.3001 359.5 51.7001C348.6 89.7001 427.3 97.0001 445.3 96.9001C453.7 96.9001 425.4 79.5001 425.4 79.5001C425.4 79.5001 483.2 109.1 495.3 107.2C504.1 105.8 473.3 79.4001 473.3 79.4001C473.3 79.4001 521.4 117.8 527.7 115.7C533.6 113.8 544.7 48.4001 473.4 17.3001Z" fill="#F5CBA2"/>
</svg>
