<svg width="826" height="1672" viewBox="0 0 826 1672" fill="none" xmlns="http://www.w3.org/2000/svg">
<path d="M608.799 1600.1C608.799 1600.1 577.399 1605.3 575.899 1607.8C574.399 1610.4 569.699 1634.6 572.899 1644.1C578.299 1660.3 664.299 1675.9 683.299 1669.9C702.299 1663.9 608.799 1600.1 608.799 1600.1Z" fill="#B3B3B3"/>
<path d="M228.7 1585C228.7 1585 260.1 1590.2 261.6 1592.7C263.1 1595.2 267.8 1619.5 264.6 1629C259.2 1645.2 173.2 1660.8 154.2 1654.8C135.4 1648.8 228.7 1585 228.7 1585Z" fill="#B3B3B3"/>
<path d="M656.4 1502C645.3 1277.6 570.6 873.2 560.5 826L238 724.6C227.9 774.4 97.8998 1268.5 172.2 1524.2C199.2 1629.7 333.4 1648.2 353.6 1429.7C362.8 1330.7 373.6 1183.6 382.7 1052.3C406.6 1282.3 467.7 1460.9 514.8 1556.6C557.8 1643.5 669.8 1646.8 656.4 1502Z" fill="#598FFC"/>
<path d="M374.1 935.1C374.1 935.1 392.8 1088.9 404.3 1202.2C387.6 1104.6 370.7 1019.7 374.1 935.1Z" fill="#1A50BC"/>
<path d="M0.899706 693.7C-8.90029 736 63.3997 760.5 74.5997 712C86.5997 660.2 10.9997 650.2 0.899706 693.7Z" fill="#C48A76"/>
<path d="M523.599 304.5C541.099 270.7 396.799 235.3 374.799 276.7C352.799 318.1 506.099 338.2 523.599 304.5Z" fill="#8E919B"/>
<path d="M825.5 796.6C821.9 699.4 789.3 494.5 602.5 328.9C589.9 317.8 577.9 310.9 566.6 307.6C537.8 281.5 500.5 262 452.7 252.3C423 246.3 391.3 248.3 352 276.8C335.1 283.7 282.8 337.1 276.8 345.3C185.6 468.4 52.1001 498.5 18.1001 611.5C0.100143 671.5 73.6001 768.8 154.5 753.2C154.4 763.3 154.7 772.8 155.4 781.6C155.4 822.1 233 888.8 384.1 911.6C517 931.6 579.3 902.4 614.2 817.6C625.3 843.3 638.9 865.7 656.4 883.2C706.6 933.4 829.4 903.4 825.5 796.6Z" fill="#B6B8BF"/>
<path d="M497.899 341.3C478.799 388.5 500.799 415.7 521.299 455C532.899 479.9 541.799 506.1 549.199 532.5C560.299 572 568.199 612.3 576.199 652.5C593.699 731.6 603.399 820.2 659.799 882.5C677.699 900.5 704.199 907.4 728.999 906.4C600.999 925.4 576.399 704.3 556.499 614.8C545.799 561.7 534.799 508.3 514.099 458.2C494.999 418.5 474.599 384.8 497.899 341.3Z" fill="#8E919B"/>
<path d="M713.5 940.3C746.1 969 802 917 764.6 884.1C724.6 848.9 679.9 910.7 713.5 940.3Z" fill="#C48A76"/>
<path d="M380.199 298.7C405.099 320.7 484.999 329.3 514.299 313.2C504.899 288.7 476.599 270.9 443.099 270.9C416.699 270.8 393.499 281.9 380.199 298.7Z" fill="#A56658"/>
<path d="M450.9 316.7C470.1 316.7 485.6 301.1 485.6 282V210.4C485.6 191.2 470 175.7 450.9 175.7C431.7 175.7 416.2 191.3 416.2 210.4V282C416.1 301.1 431.7 316.7 450.9 316.7Z" fill="#B57868"/>
<path d="M392.499 49.3999C392.499 49.3999 376.299 110.8 380.399 164.9C384.099 213.5 404.499 255.4 461.499 253C552.299 246.1 511.299 49.3999 511.299 49.3999H392.499Z" fill="#C48A76"/>
<path d="M344.699 280.3C344.699 280.3 208.199 386.2 158.799 656.5C148.999 529.2 237.399 360.1 344.699 280.3Z" fill="#8E919B"/>
<path d="M474.2 7.90005C474.2 7.90005 474.5 8.00005 475 8.20005C474.8 6.00005 474.2 7.90005 474.2 7.90005Z" fill="#6B4343"/>
<path d="M524.7 53.5999C512.7 23.3999 480.6 10.2999 475 8.19994C475.1 9.59994 475.1 12.5999 474.8 18.7999C450 -5.20006 413.6 0.599937 413.6 0.599937C413.6 0.599937 409.8 -0.100062 414.2 11.7999C392.6 11.1999 382 23.9999 382 23.9999C382 23.9999 383.2 45.5999 384.7 55.7999C385.2 58.9999 384.7 75.0999 383.9 95.7999C386.5 78.8999 391.6 60.5999 401.6 54.8999C421.9 64.9999 469.8 64.1999 484.3 54.9999C502.4 76.4999 513.8 94.6999 513.8 94.6999L517.9 167.6C518.2 172.4 516.1 177 512.3 180L479.6 205.6C479.6 205.6 475.8 188.9 468.1 185.6C460.4 182.3 413.3 180.2 409.8 185.1C406.3 190 399.4 200.7 399.4 200.7C399.4 200.7 385 193.5 380.5 167.3C379.3 191.1 378.3 209.3 378.3 209.3C378.3 209.3 378.7 251.7 442 257.6C505.3 263.5 521.4 205.2 522.4 190.1C523.4 175 524 139.1 523.6 132.1C523.2 125 530.3 121.9 528.3 120C526.4 118 537.8 86.6999 524.7 53.5999Z" fill="#3F2C34"/>
<path d="M432.7 110.9C423.2 128.6 410.3 149.1 426.7 156.2C436.7 161.5 450 154.6 450 154.6C442.9 169.3 421.199 165.4 415.799 160C408.299 152.7 413.6 130 432.7 110.9Z" fill="#A56658"/>
</svg>
