<svg width="1034" height="1706" viewBox="0 0 1034 1706" fill="none" xmlns="http://www.w3.org/2000/svg">
<path d="M394.101 1640.9C394.101 1640.9 424.701 1649.6 425.901 1652.4C427.101 1655.2 428.901 1679.8 424.701 1688.8C417.501 1704.3 330.201 1709.9 312.101 1701.7C294.001 1693.5 394.101 1640.9 394.101 1640.9Z" fill="#B3B3B3"/>
<path d="M730 1630.9C730 1630.9 698.6 1636.1 697.1 1638.6C695.6 1641.2 690.9 1665.4 694.1 1674.9C699.5 1691.1 785.5 1706.7 804.5 1700.7C823.4 1694.7 730 1630.9 730 1630.9Z" fill="#B3B3B3"/>
<path d="M539.901 7.60011C581.101 -15.3999 685.001 12.2001 678.101 108.9C671.501 200.8 689.201 235.7 746.901 255.7C804.601 275.7 773.701 369.1 689.901 367.6C516.701 364.6 374.701 99.9001 539.901 7.60011Z" fill="#6B4343"/>
<path d="M739.501 744.4C711.601 640 380.601 657.9 365.201 733.5C351.701 799.8 300.501 1244.5 281.501 1465.7C262.601 1686.9 493.701 1714.4 537.301 1541.8C543.401 1517.8 549.301 1488 555.101 1454.4C556.701 1466.5 558.301 1478.1 559.901 1489.2C590.901 1709.1 822.301 1684.2 826.201 1506.2C830.401 1312.7 749.801 782.9 739.501 744.4Z" fill="#598FFC"/>
<path d="M686.9 310.5C683.4 302.8 679.8 296.6 676 292.1C649.7 259.4 539.7 201 463.2 279.9C458.8 284.4 454.4 290.1 449.9 296.9C415.6 330.2 329.7 410.9 265.7 448C183.9 495.5 -17.4999 567.3 34.8001 709.2C74.5001 816.7 237 781.3 340.1 672.5C327.3 764.1 326.1 842.6 344.6 869.8C415.2 973.4 744.1 975.1 809.1 890C818.2 878.1 824.4 864.6 828.1 850.3C899.1 924.6 1033.8 895.5 1033.8 745.9C1033.9 374.1 751 380.3 686.9 310.5Z" fill="#F4BCD4"/>
<path d="M734.901 599.8C774.801 644.2 786.301 705.6 792.701 763.1C794.101 771.4 796.001 780.5 798.601 788.6C818.501 862.5 901.601 911.6 973.101 874.6C903.101 920.1 814.801 873 791.201 798.1C785.901 783.1 783.001 766.8 781.601 751C776.701 698.2 766.101 643.6 734.901 599.8Z" fill="#AF6E8D"/>
<path d="M661.239 300.67C663.089 280.541 622.814 260.384 571.282 255.647C519.751 250.91 476.476 263.387 474.626 283.516C472.775 303.645 513.05 323.802 564.582 328.539C616.114 333.276 659.388 320.799 661.239 300.67Z" fill="#AF6E8D"/>
<path d="M496.301 310C512.701 319 537.001 326 564.601 328.6C593.801 331.3 620.301 328.4 638.201 321.8C631.701 287.6 601.701 261.7 565.601 261.7C533.701 261.6 506.701 281.8 496.301 310Z" fill="#D8A67D"/>
<path d="M565.602 304.2C547.602 304.2 533.102 289.6 533.102 271.7V222.2C533.102 204.2 547.702 189.7 565.602 189.7C583.602 189.7 598.102 204.3 598.102 222.2V271.7C598.102 289.6 583.502 304.2 565.602 304.2Z" fill="#E2AC83"/>
<path d="M648.001 153.3C636.301 216.3 587.101 260 553.401 253.8C520.501 247.7 489.501 189.1 501.201 126.1C512.901 63.1002 556.801 22.9002 595.001 30.0002C633.201 37.1002 659.601 90.3002 648.001 153.3Z" fill="#F5CBA2"/>
<path d="M612.402 21.2001C612.402 21.2001 626.502 143.5 473.102 134C481.102 69.3001 509.702 -2.59994 612.402 21.2001Z" fill="#6B4343"/>
<path d="M597.501 18.3C597.501 18.3 664.501 31.9 659.901 119.2C605.101 97.5 585.401 65.3 597.501 18.3Z" fill="#6B4343"/>
<path d="M910.201 833.3C849.701 837.3 872.801 943.2 919.001 945.9C967.301 948.7 982.101 828.6 910.201 833.3Z" fill="#F5CBA2"/>
<path d="M88.5009 681C133.901 721.1 50.9009 790.8 12.8009 764.8C-27.1991 737.5 34.5009 633.3 88.5009 681Z" fill="#F5CBA2"/>
<path d="M570.302 136.7C569.802 143.9 554.902 172.6 567.302 180.2C574.402 182.8 583.402 181.3 583.402 181.3C579.802 186.7 566.802 187.1 558.802 182.9C550.802 178.8 564.402 145.9 570.302 136.7Z" fill="#D8A67D"/>
<path d="M423.301 392.9C402.801 419.6 349.301 536.6 354.901 602.8C385.001 494 423.301 392.9 423.301 392.9Z" fill="#AF6E8D"/>
<path d="M499.001 1006.1C493.901 1039.4 537.701 1387 559.901 1489.3C551.401 1372.4 499.001 1006.1 499.001 1006.1Z" fill="#1A50BC"/>
</svg>
